<?xml version="1.0" encoding="UTF-8" standalone="no"?>
<!-- Created with Inkscape (http://www.inkscape.org/) -->

<svg
   width="170.8699mm"
   height="89.407799mm"
   viewBox="0 0 170.8699 89.407799"
   version="1.1"
   id="svg1"
   inkscape:version="1.4.2 (f4327f4, 2025-05-13)"
   sodipodi:docname="tabard_assembly.svg"
   xmlns:inkscape="http://www.inkscape.org/namespaces/inkscape"
   xmlns:sodipodi="http://sodipodi.sourceforge.net/DTD/sodipodi-0.dtd"
   xmlns="http://www.w3.org/2000/svg"
   xmlns:svg="http://www.w3.org/2000/svg">
  <sodipodi:namedview
     id="namedview1"
     pagecolor="#ffffff"
     bordercolor="#000000"
     borderopacity="0.25"
     inkscape:showpageshadow="2"
     inkscape:pageopacity="0.0"
     inkscape:pagecheckerboard="0"
     inkscape:deskcolor="#d1d1d1"
     inkscape:document-units="mm"
     inkscape:zoom="0.52203984"
     inkscape:cx="315.11005"
     inkscape:cy="134.08938"
     inkscape:window-width="1440"
     inkscape:window-height="830"
     inkscape:window-x="-6"
     inkscape:window-y="-6"
     inkscape:window-maximized="1"
     inkscape:current-layer="layer1" />
  <defs
     id="defs1">
    <clipPath
       clipPathUnits="userSpaceOnUse"
       id="clipPath4-84-2">
      <path
         style="fill:none;stroke:#000000;stroke-width:0.308763px;stroke-linecap:butt;stroke-linejoin:miter;stroke-opacity:1"
         d="m 97.350362,76.328545 -27.951081,2.5801 c 7.251531,9.781707 -0.564301,40.265315 -8.170317,41.281605 L 48.328465,231.56455 H 110.68087 L 110.25086,88.79903 C 103.45225,89.222667 97.371023,88.331135 97.350362,76.328545 Z"
         id="path4-9-6"
         sodipodi:nodetypes="ccccccc" />
    </clipPath>
    <rect
       x="437.24707"
       y="-8.8631163"
       width="276.72617"
       height="80.752838"
       id="rect13-9-5" />
    <clipPath
       clipPathUnits="userSpaceOnUse"
       id="clipPath3-2-3">
      <path
         style="fill:none;stroke:#000000;stroke-width:0.308763px;stroke-linecap:butt;stroke-linejoin:miter;stroke-opacity:1"
         d="m 97.350362,111.51047 -27.951081,2.5801 c 7.251531,9.78171 -0.564301,40.26531 -8.170317,41.2816 L 48.328465,266.74648 h 62.352405 l -0.43001,-142.76552 c -6.79861,0.42364 -12.879837,-0.4679 -12.900498,-12.47049 z"
         id="path3-5-9"
         sodipodi:nodetypes="ccccccc" />
    </clipPath>
    <marker
       style="overflow:visible"
       id="Triangle-7-1-5-3"
       refX="0"
       refY="0"
       orient="auto-start-reverse"
       inkscape:stockid="Triangle arrow"
       markerWidth="1"
       markerHeight="1"
       viewBox="0 0 1 1"
       inkscape:isstock="true"
       inkscape:collect="always"
       preserveAspectRatio="xMidYMid">
      <path
         transform="scale(0.5)"
         style="fill:context-stroke;fill-rule:evenodd;stroke:context-stroke;stroke-width:1pt"
         d="M 5.77,0 -2.88,5 V -5 Z"
         id="path135-1-7-0-2" />
    </marker>
    <marker
       style="overflow:visible"
       id="marker10-1-0-3-5"
       refX="0"
       refY="0"
       orient="auto-start-reverse"
       inkscape:stockid="Triangle arrow"
       markerWidth="1"
       markerHeight="1"
       viewBox="0 0 1 1"
       inkscape:isstock="true"
       inkscape:collect="always"
       preserveAspectRatio="xMidYMid">
      <path
         transform="scale(0.5)"
         style="fill:context-stroke;fill-rule:evenodd;stroke:context-stroke;stroke-width:1pt"
         d="M 5.77,0 -2.88,5 V -5 Z"
         id="path10-3-1-9-2" />
    </marker>
  </defs>
  <g
     inkscape:label="Layer 1"
     inkscape:groupmode="layer"
     id="layer1"
     transform="translate(-21.596861,-113.26629)">
    <g
       id="g2-7-0-6"
       transform="matrix(0,0.5751389,-0.64623664,0,157.06174,138.77966)"
       clip-path="url(#clipPath4-84-2)"
       style="fill:#ebc929;fill-opacity:1">
      <path
         style="fill:#ebc929;fill-opacity:1;stroke:none;stroke-width:0.186435;stroke-linecap:butt;stroke-linejoin:miter;stroke-dasharray:none;stroke-opacity:1"
         d="m 46.096177,196.0694 46.860244,-38.05037 -0.941206,-0.83807 -0.761925,0.50284 -0.717116,-5.40556 5.960976,1.29901 -0.85157,0.71236 0.627473,0.58664 4.347487,-3.26847 -0.4482,-0.46094 5.6921,-2.3466 -3.04775,4.81891 -0.44819,-0.41904 -4.213028,3.56181 c 0.782208,1.84835 5.003428,2.73338 4.571578,-1.59235 5.28779,6.23818 -3.361229,14.39334 -10.711835,8.54834 3.461667,0.85473 5.00888,-1.53931 2.465064,-3.93893 l -46.965121,39.04399"
         id="path1-42-2-6-1"
         sodipodi:nodetypes="cccccccccccccccccc" />
      <path
         style="fill:#ebc929;fill-opacity:1;stroke:#000000;stroke-width:0.264583px;stroke-linecap:butt;stroke-linejoin:miter;stroke-opacity:1"
         d="M 48.687324,185.99136 111.23575,133.02358"
         id="path2-3-8-8"
         sodipodi:nodetypes="cc" />
      <path
         style="fill:#ebc929;fill-opacity:1;stroke:#000000;stroke-width:0.264583px;stroke-linecap:butt;stroke-linejoin:miter;stroke-opacity:1"
         d="M 50.166374,209.52008 111.65646,157.61063"
         id="path2-2-9-1-2"
         sodipodi:nodetypes="cc" />
      <path
         style="fill:#000000;fill-opacity:1;stroke:none;stroke-width:0.865375;stroke-opacity:1"
         d="m 193.75729,653.32654 c -5.8e-4,-1.92841 5.44783,-48.72598 5.79123,-49.74206 0.20019,-0.59235 35.81645,-30.54644 79.14724,-66.56464 l 78.78325,-65.48764 1.13381,1.32225 c 1.65051,1.92485 3.02832,5.02622 3.04074,6.84457 0.015,2.1955 -2.42288,4.88493 -5.08122,5.60552 -1.20076,0.32549 -3.42238,0.42874 -5.37137,0.24963 -2.09257,-0.19231 -3.32366,-0.12293 -3.32366,0.1873 0,1.43907 8.05857,5.8041 13.11954,7.10636 3.87862,0.99803 10.75564,0.9973 14.62972,-0.002 7.39874,-1.90762 14.16694,-7.46412 17.41003,-14.29316 1.60411,-3.37777 1.85234,-4.40139 2.02505,-8.35036 0.22141,-5.06225 -0.59741,-8.79438 -2.74714,-12.5213 -1.36232,-2.36181 -3.65295,-5.41672 -4.06079,-5.41569 -0.13541,3.4e-4 -0.24855,1.49598 -0.25144,3.32365 -0.009,5.57002 -2.72515,8.993 -7.12681,8.98077 -2.26254,-0.006 -6.45506,-1.98085 -7.77867,-3.66354 l -1.04599,-1.32976 5.02399,-4.23729 c 2.76319,-2.33051 6.19148,-5.22486 7.61844,-6.43189 2.45913,-2.08013 2.64213,-2.15145 3.50849,-1.36741 0.87601,0.79279 1.17105,0.4219 7.09452,-8.91839 3.39927,-5.36006 5.99101,-9.81411 5.75942,-9.89787 -0.33232,-0.1202 -21.94718,8.53866 -22.56087,9.03784 -0.0865,0.0703 0.12672,0.58253 0.47375,1.13822 0.34704,0.55569 0.52857,1.09639 0.40342,1.20155 -0.76638,0.64392 -14.13036,10.56921 -14.65169,10.88165 -0.35039,0.20999 -0.96848,0.10675 -1.37355,-0.22942 -0.63402,-0.52619 -0.49048,-0.81399 1.0317,-2.0687 0.97249,-0.80161 1.69425,-1.5314 1.60391,-1.62174 -0.33633,-0.33634 -23.59407,-5.23007 -23.81347,-5.01067 -0.2226,0.22261 2.14054,19.65884 2.54867,20.96212 0.15799,0.50451 0.58465,0.42124 1.85057,-0.36114 l 1.64524,-1.01681 1.16023,1.23499 c 1.14806,1.22206 1.15017,1.24454 0.20127,2.14533 -0.52743,0.50069 -25.22173,20.59411 -54.87624,44.65205 -29.65451,24.05795 -62.66962,50.8662 -73.36691,59.57391 -10.69729,8.7077 -19.51906,15.77497 -19.60393,15.70505 -0.0849,-0.0699 0.65686,-7.1851 1.64832,-15.81152 1.6164,-14.06399 1.91213,-15.79278 2.86249,-16.73352 0.58292,-0.57703 46.04017,-39.11361 101.01611,-85.63686 54.97594,-46.52325 102.00585,-86.34203 104.51091,-88.48618 l 4.55466,-3.89846 -0.0127,46.20453 -0.0127,46.20452 -110.8397,93.55511 c -60.96184,51.45532 -111.03274,93.62898 -111.26867,93.71925 -0.23593,0.0903 -0.42909,-0.24209 -0.42924,-0.7386 z"
         id="path7-9-1"
         transform="matrix(0.26458333,0,0,0.26458333,-0.09524591,35.217563)" />
      <text
         xml:space="preserve"
         transform="matrix(0.26458333,0,0,0.26458333,-0.09524591,35.217563)"
         id="text13-8-1"
         style="font-style:normal;font-weight:normal;font-size:40px;line-height:1.25;font-family:sans-serif;letter-spacing:0px;word-spacing:0px;white-space:pre;shape-inside:url(#rect13-9-5);display:inline;fill:#000000;fill-opacity:1;stroke:none" />
      <text
         xml:space="preserve"
         style="font-style:normal;font-weight:normal;font-size:10.5833px;line-height:1.25;font-family:sans-serif;letter-spacing:0px;word-spacing:0px;fill:#000000;fill-opacity:1;stroke:#000000;stroke-width:0.365;stroke-dasharray:none;stroke-opacity:1"
         x="31.432415"
         y="24.274076"
         id="text14-9-9"><tspan
           sodipodi:role="line"
           id="tspan14-7-7"
           x="31.432415"
           y="24.274076"
           style="fill:#000000;stroke:#000000;stroke-width:0.365;stroke-dasharray:none;stroke-opacity:1">Bryn</tspan></text>
    </g>
    <g
       id="g2-3-2-6"
       transform="matrix(0,0.5751389,-0.64623664,0,179.79764,138.77966)"
       clip-path="url(#clipPath3-2-3)"
       style="fill:#ebc929;fill-opacity:1">
      <path
         style="fill:#ebc929;fill-opacity:1;stroke:none;stroke-width:0.186435;stroke-linecap:butt;stroke-linejoin:miter;stroke-dasharray:none;stroke-opacity:1"
         d="m 46.096177,196.0694 46.860244,-38.05037 -0.941206,-0.83807 -0.761925,0.50284 -0.717116,-5.40556 5.960976,1.29901 -0.85157,0.71236 0.627473,0.58664 4.347487,-3.26847 -0.4482,-0.46094 5.6921,-2.3466 -3.04775,4.81891 -0.44819,-0.41904 -4.213028,3.56181 c 0.782208,1.84835 5.003428,2.73338 4.571578,-1.59235 5.28779,6.23818 -3.361229,14.39334 -10.711835,8.54834 3.461667,0.85473 5.00888,-1.53931 2.465064,-3.93893 l -46.965121,39.04399"
         id="path1-42-5-2-2"
         sodipodi:nodetypes="cccccccccccccccccc" />
      <path
         style="fill:#ebc929;fill-opacity:1;stroke:#000000;stroke-width:0.264583px;stroke-linecap:butt;stroke-linejoin:miter;stroke-opacity:1"
         d="M 48.687324,185.99136 111.23575,133.02358"
         id="path2-5-8-9"
         sodipodi:nodetypes="cc" />
      <path
         style="fill:#ebc929;fill-opacity:1;stroke:#000000;stroke-width:0.264583px;stroke-linecap:butt;stroke-linejoin:miter;stroke-opacity:1"
         d="M 50.166374,209.52008 111.65646,157.61063"
         id="path2-2-4-28-5"
         sodipodi:nodetypes="cc" />
      <path
         style="fill:#000000;fill-opacity:1;stroke:none;stroke-width:0.865375;stroke-opacity:1"
         d="m 210.69668,505.93621 c 0.1566,-0.94786 1.52581,-12.5807 3.04269,-25.85076 1.59287,-13.93483 2.99905,-24.37144 3.32866,-24.70514 0.31389,-0.31777 32.03477,-26.73759 70.49085,-58.71072 l 69.92013,-58.13295 1.15084,1.34666 c 1.6459,1.92599 3.01113,5.02738 3.02371,6.86898 0.0153,2.24416 -2.32454,4.76289 -5.16295,5.55759 -1.43799,0.40261 -3.36898,0.50886 -5.42321,0.2984 -1.82563,-0.18704 -3.19009,-0.13536 -3.19009,0.12083 0,0.72337 2.93972,2.75881 6.77119,4.68831 14.51974,7.31202 31.83688,1.98398 38.3881,-11.81103 1.60411,-3.37778 1.85234,-4.40139 2.02505,-8.35036 0.22141,-5.06225 -0.59741,-8.79438 -2.74714,-12.5213 -1.36232,-2.36181 -3.65295,-5.41672 -4.06079,-5.41569 -0.13541,3.4e-4 -0.24855,1.49598 -0.25144,3.32365 -0.009,5.57001 -2.72515,8.993 -7.12681,8.98077 -2.26279,-0.006 -6.45511,-1.98091 -7.77903,-3.66399 l -1.04634,-1.33022 6.74772,-5.70024 c 3.71125,-3.13514 7.13549,-6.03311 7.60942,-6.43993 0.76959,-0.66062 0.95995,-0.65075 1.78105,0.0923 0.88315,0.79925 1.16635,0.44221 7.19006,-9.06473 3.44889,-5.44321 6.19266,-9.9618 6.09728,-10.04131 -0.0954,-0.0795 -5.15893,1.92185 -11.25233,4.44747 -6.09339,2.52563 -11.30047,4.67758 -11.57129,4.78212 -0.27249,0.10519 -0.11378,0.61748 0.35538,1.1471 0.82196,0.92789 0.62869,1.12116 -6.34991,6.34998 -8.75126,6.55701 -8.41109,6.35176 -9.30177,5.61256 -0.61053,-0.50669 -0.44317,-0.83529 1.1086,-2.17669 1.82155,-1.57461 1.82363,-1.58086 0.62176,-1.86297 -7.93699,-1.86302 -22.697,-4.8891 -22.89268,-4.69342 -0.23939,0.23939 2.08872,19.59619 2.52415,20.98664 0.15799,0.50451 0.58465,0.42124 1.85057,-0.36114 l 1.64524,-1.01681 1.15834,1.23298 c 1.0059,1.07073 1.06478,1.32318 0.44746,1.91845 -1.09523,1.05611 -131.15927,106.5951 -131.23131,106.48616 -0.0949,-0.14357 3.66012,-31.89933 3.82916,-32.3825 0.0801,-0.22903 43.57496,-37.19162 96.65518,-82.13909 l 96.50948,-81.72266 0.36035,45.86458 c 0.1982,25.22551 0.1982,46.00651 0,46.18 -0.19819,0.17349 -46.00539,38.81852 -101.79379,85.87786 -55.78839,47.05934 -101.95157,86.03295 -102.58486,86.60802 l -1.15142,1.04559 z"
         id="path6-9-2"
         transform="matrix(0.26458333,0,0,0.26458333,-0.09524591,70.399491)" />
    </g>
    <path
       style="fill:none;stroke:#000000;stroke-width:0.189939;stroke-linecap:butt;stroke-linejoin:miter;stroke-miterlimit:4;stroke-dasharray:none;stroke-opacity:1"
       d="m 107.71344,194.69646 0.7166,-16.0758 c -29.196997,-4.8479 -53.381397,-6.7924 -86.285597,-10.6121 l 1.209,34.57 76.3011,-0.4625 c -0.2738,-3.9102 0.3024,-7.4077 8.058897,-7.4196 z"
       id="path1-0-0"
       sodipodi:nodetypes="cccccc" />
    <path
       style="fill:#ebc929;fill-opacity:1;stroke:#000000;stroke-width:0.187501;stroke-linecap:butt;stroke-linejoin:miter;stroke-miterlimit:4;stroke-dasharray:none;stroke-opacity:1"
       d="m 107.76994,194.18006 -0.7166,-16.0757 c 31.2241,-3.9255 50.8924,-6.6828 84.8346,-10.1818 l 0.4837,33.0636 -76.5428,0.6135 c 0.2737,-3.9101 -0.3024,-7.4077 -8.0589,-7.4196 z"
       id="path1-4-8-4"
       sodipodi:nodetypes="cccccc" />
    <path
       d="m 167.01634,195.53136 c -0.042,0 -1.0601,-0.3075 -2.2622,-0.6834 -1.4615,-0.4571 -2.2072,-0.6667 -2.2512,-0.6328 -0.043,0.033 -0.08,0.4308 -0.1073,1.1617 -0.023,0.611 -0.063,1.104 -0.088,1.0956 -0.026,-0.01 -0.3455,-0.3724 -0.7105,-0.8088 -0.7709,-0.9215 -0.8744,-1.0315 -0.9707,-1.0315 -0.039,0 -0.628,0.7201 -1.3086,1.6001 -0.6805,0.8801 -1.3253,1.7132 -1.4328,1.8514 -0.1075,0.1382 -0.215,0.2513 -0.2388,0.2513 -0.024,0 -0.031,-1.0012 -0.016,-2.2249 0.018,-1.4378 0.01,-2.2434 -0.029,-2.2774 -0.047,-0.043 -1.0895,0.2008 -2.1946,0.5139 -0.055,0.015 -0.1,0 -0.1,-0.029 0,-0.032 0.2835,-0.4514 0.6299,-0.9328 0.3464,-0.4814 0.6219,-0.9127 0.6122,-0.9586 -0.01,-0.046 -0.056,-0.1028 -0.1031,-0.1267 -0.066,-0.033 -2.3633,-0.7204 -4.433,-1.3254 -0.2286,-0.067 -0.1872,-0.1146 0.1903,-0.2197 0.1567,-0.044 1.1176,-0.3219 2.1356,-0.6186 1.0179,-0.2967 1.9341,-0.5618 2.0359,-0.5892 0.1257,-0.034 0.1851,-0.082 0.1851,-0.1512 0,-0.056 -0.2724,-0.4771 -0.6052,-0.9365 -0.3329,-0.4593 -0.6189,-0.8681 -0.6355,-0.9085 -0.041,-0.098 0.099,-0.073 1.1553,0.2065 1.0487,0.2777 1.1653,0.2979 1.174,0.2035 0,-0.04 0,-1.0517 0,-2.2489 -0.01,-1.3988 0.01,-2.1884 0.046,-2.2093 0.031,-0.018 0.2201,0.188 0.4199,0.4576 1.1137,1.5034 2.4592,3.2144 2.5277,3.2144 0.089,0 0.1392,-0.051 0.7003,-0.7142 0.7558,-0.8934 0.9265,-1.0843 0.9692,-1.0843 0.048,0 0.1172,1.0361 0.1172,1.7433 0,0.2651 0.027,0.4819 0.063,0.516 0.077,0.072 0,0.091 2.5786,-0.6993 1.0929,-0.3358 1.9993,-0.5991 2.0144,-0.5851 0.027,0.025 -0.5222,0.7265 -2.0199,2.5809 -0.4164,0.5156 -0.7572,0.9832 -0.7572,1.0391 0,0.084 0.2017,0.1708 1.1507,0.4968 0.6328,0.2174 1.1577,0.4164 1.1663,0.4421 0.01,0.026 -0.5156,0.2274 -1.1649,0.4482 -0.8077,0.2747 -1.1862,0.4284 -1.1984,0.4868 -0.01,0.047 0.2359,0.4019 0.5461,0.7887 1.4459,1.8032 2.2818,2.8987 2.2117,2.8987 z"
       style="fill:#000000;fill-opacity:1;stroke:#000000;stroke-width:0.0849953;stroke-dasharray:none;stroke-opacity:1"
       id="path1-7-0-2" />
    <path
       d="m 140.08634,195.53136 c -0.042,0 -1.0601,-0.3075 -2.2621,-0.6834 -1.4616,-0.4571 -2.2073,-0.6667 -2.2512,-0.6328 -0.043,0.033 -0.08,0.4308 -0.1074,1.1617 -0.023,0.611 -0.063,1.104 -0.088,1.0956 -0.026,-0.01 -0.3454,-0.3724 -0.7105,-0.8088 -0.7708,-0.9215 -0.8743,-1.0315 -0.9706,-1.0315 -0.039,0 -0.628,0.7201 -1.3086,1.6001 -0.6805,0.8801 -1.3253,1.7132 -1.4328,1.8514 -0.1075,0.1382 -0.215,0.2513 -0.2388,0.2513 -0.024,0 -0.031,-1.0012 -0.016,-2.2249 0.018,-1.4378 0.01,-2.2434 -0.029,-2.2774 -0.047,-0.043 -1.0895,0.2008 -2.1946,0.5139 -0.055,0.015 -0.1,0 -0.1,-0.029 0,-0.032 0.2834,-0.4514 0.6298,-0.9328 0.3465,-0.4814 0.6219,-0.9127 0.6122,-0.9586 -0.01,-0.046 -0.056,-0.1028 -0.1031,-0.1267 -0.066,-0.033 -2.3632,-0.7204 -4.4329,-1.3254 -0.2286,-0.067 -0.1873,-0.1146 0.1903,-0.2197 0.1566,-0.044 1.1176,-0.3219 2.1356,-0.6186 1.0179,-0.2967 1.9341,-0.5618 2.0359,-0.5892 0.1256,-0.034 0.185,-0.082 0.185,-0.1512 0,-0.056 -0.2723,-0.4771 -0.6051,-0.9365 -0.3329,-0.4593 -0.6189,-0.8681 -0.6356,-0.9085 -0.041,-0.098 0.099,-0.073 1.1553,0.2065 1.0488,0.2777 1.1654,0.2979 1.1741,0.2035 0,-0.04 0,-1.0517 0,-2.2489 -0.01,-1.3988 0.01,-2.1884 0.046,-2.2093 0.031,-0.018 0.2201,0.188 0.4198,0.4576 1.1138,1.5034 2.4593,3.2144 2.5278,3.2144 0.089,0 0.1392,-0.051 0.7003,-0.7142 0.7558,-0.8934 0.9264,-1.0843 0.9692,-1.0843 0.048,0 0.1171,1.0361 0.1171,1.7433 0,0.2651 0.027,0.4819 0.063,0.516 0.077,0.072 0,0.091 2.5786,-0.6993 1.0929,-0.3358 1.9993,-0.5991 2.0144,-0.5851 0.027,0.025 -0.5221,0.7265 -2.0199,2.5809 -0.4164,0.5156 -0.7571,0.9832 -0.7571,1.0391 0,0.084 0.2016,0.1708 1.1506,0.4968 0.6329,0.2174 1.1577,0.4164 1.1663,0.4421 0.01,0.026 -0.5155,0.2274 -1.1649,0.4482 -0.8077,0.2747 -1.1862,0.4284 -1.1984,0.4868 -0.01,0.047 0.2359,0.4019 0.5461,0.7887 1.4459,1.8032 2.2818,2.8987 2.2117,2.8987 z"
       style="fill:#000000;fill-opacity:1;stroke:#000000;stroke-width:0.0849953;stroke-dasharray:none;stroke-opacity:1"
       id="path1-7-1-88-5" />
    <path
       style="fill:#ebc929;fill-opacity:1;stroke-width:17.1359;stroke-miterlimit:4;stroke-dasharray:none"
       d="m 136.40414,113.90479 c -16.0515,83.2797 -44.090197,82.7356 -56.261497,-0.6385"
       id="path26-8"
       sodipodi:nodetypes="cc" />
    <path
       d="m 112.95994,145.29289 c 0,0.043 -0.3356,1.0985 -0.7458,2.344 -0.4988,1.5145 -0.7276,2.2871 -0.6906,2.3327 0.036,0.045 0.4701,0.083 1.2677,0.1112 0.6668,0.023 1.2049,0.065 1.1957,0.092 -0.01,0.027 -0.4064,0.3579 -0.8827,0.7362 -1.0056,0.7988 -1.1257,0.9061 -1.1257,1.0058 0,0.041 0.7858,0.6508 1.7463,1.356 0.9604,0.7051 1.8697,1.3732 2.0204,1.4846 0.1509,0.1115 0.2743,0.2228 0.2743,0.2475 0,0.025 -1.0926,0.032 -2.428,0.016 -1.5692,-0.019 -2.4483,-0.01 -2.4854,0.03 -0.047,0.048 0.2191,1.1289 0.5608,2.2739 0.017,0.057 0,0.1033 -0.032,0.1033 -0.034,0 -0.4927,-0.2937 -1.0181,-0.6526 -0.5253,-0.359 -0.9961,-0.6445 -1.046,-0.6343 -0.05,0.01 -0.1123,0.058 -0.1383,0.1068 -0.036,0.068 -0.7862,2.4487 -1.4466,4.5933 -0.073,0.2369 -0.125,0.1941 -0.2397,-0.1972 -0.048,-0.1622 -0.3513,-1.158 -0.6751,-2.2128 -0.3237,-1.0548 -0.6131,-2.0041 -0.643,-2.1096 -0.037,-0.1302 -0.09,-0.1918 -0.165,-0.1918 -0.061,0 -0.5207,0.2822 -1.0219,0.6271 -0.5013,0.3449 -0.9475,0.6412 -0.9915,0.6585 -0.1073,0.042 -0.08,-0.1024 0.2253,-1.1971 0.3031,-1.0867 0.3252,-1.2075 0.222,-1.2165 -0.043,-0.01 -1.1476,0 -2.4542,0.01 -1.5265,0.01 -2.388197,-0.01 -2.411097,-0.048 -0.019,-0.032 0.205197,-0.2281 0.499497,-0.435 1.6406,-1.1541 3.5078,-2.5483 3.5078,-2.6194 0,-0.092 -0.055,-0.1441 -0.7793,-0.7256 -0.975,-0.7831 -1.1834,-0.96 -1.1834,-1.0043 0,-0.05 1.1308,-0.1214 1.9025,-0.1214 0.2893,0 0.526,-0.027 0.5632,-0.066 0.078,-0.08 0.1,-0.01 -0.7633,-2.6719 -0.3663,-1.1324 -0.6537,-2.0716 -0.6384,-2.0872 0.027,-0.028 0.7928,0.541 2.8166,2.0929 0.5626,0.4315 1.0729,0.7846 1.1339,0.7846 0.091,0 0.1865,-0.209 0.5422,-1.1923 0.2373,-0.6558 0.4544,-1.1996 0.4825,-1.2085 0.028,-0.01 0.2482,0.5342 0.4891,1.207 0.2998,0.837 0.4675,1.2291 0.5313,1.2419 0.052,0.01 0.4385,-0.2445 0.8608,-0.566 1.9678,-1.4982 3.1633,-2.3643 3.1633,-2.2917 z"
       style="fill:#000000;fill-opacity:1;stroke:#000000;stroke-width:0.0903837;stroke-dasharray:none;stroke-opacity:1"
       id="path1-7-6-3-1" />
    <path
       style="fill:none;fill-opacity:1;stroke:#0e35ff;stroke-width:1.06093;stroke-linecap:butt;stroke-linejoin:miter;stroke-dasharray:none;stroke-opacity:1;marker-start:url(#Triangle-7-1-5-3);marker-end:url(#marker10-1-0-3-5)"
       d="m 107.29684,138.54242 0.7077,41.8403"
       id="path9-6-5-7-6"
       sodipodi:nodetypes="cc" />
  </g>
</svg>
