<?xml version="1.0" encoding="UTF-8" standalone="no"?>
<!-- Created with Inkscape (http://www.inkscape.org/) -->

<svg
   width="89.636848mm"
   height="93.806694mm"
   viewBox="0 0 89.636848 93.806694"
   version="1.1"
   id="svg1"
   inkscape:version="1.4.2 (f4327f4, 2025-05-13)"
   sodipodi:docname="tabard_sleeve.svg"
   xmlns:inkscape="http://www.inkscape.org/namespaces/inkscape"
   xmlns:sodipodi="http://sodipodi.sourceforge.net/DTD/sodipodi-0.dtd"
   xmlns="http://www.w3.org/2000/svg"
   xmlns:svg="http://www.w3.org/2000/svg">
  <sodipodi:namedview
     id="namedview1"
     pagecolor="#ffffff"
     bordercolor="#000000"
     borderopacity="0.25"
     inkscape:showpageshadow="2"
     inkscape:pageopacity="0.0"
     inkscape:pagecheckerboard="0"
     inkscape:deskcolor="#d1d1d1"
     inkscape:document-units="mm"
     inkscape:zoom="0.52203984"
     inkscape:cx="318.94117"
     inkscape:cy="275.84101"
     inkscape:window-width="1440"
     inkscape:window-height="830"
     inkscape:window-x="-6"
     inkscape:window-y="-6"
     inkscape:window-maximized="1"
     inkscape:current-layer="layer1" />
  <defs
     id="defs1" />
  <g
     inkscape:label="Layer 1"
     inkscape:groupmode="layer"
     id="layer1"
     transform="translate(-20.63748,-75.670832)">
    <path
       style="fill:#ebc929;fill-opacity:1;stroke-width:26.4319;stroke-miterlimit:4;stroke-dasharray:none"
       d="M 20.63748,168.52394 C 46.21104,44.156124 90.88281,44.968739 110.27433,169.47753"
       id="path26"
       sodipodi:nodetypes="cc" />
    <path
       d="m 57.98917,121.64982 c 0,-0.0652 0.53474,-1.64046 1.18831,-3.50051 0.79468,-2.26166 1.15913,-3.41559 1.10023,-3.48358 -0.0579,-0.0669 -0.7491,-0.12374 -2.01977,-0.16613 -1.06244,-0.0355 -1.91969,-0.097 -1.905,-0.13677 0.0147,-0.0398 0.64752,-0.53452 1.4063,-1.09941 1.60224,-1.19287 1.79347,-1.35303 1.79347,-1.50204 0,-0.0606 -1.25198,-0.97181 -2.78218,-2.0249 -1.53019,-1.05308 -2.97876,-2.05083 -3.21904,-2.21721 -0.24027,-0.16638 -0.43687,-0.33265 -0.43687,-0.36949 0,-0.0368 1.74076,-0.0477 3.86836,-0.0242 2.50004,0.0277 3.90067,0.0118 3.95972,-0.0448 0.0754,-0.0723 -0.34908,-1.68596 -0.89344,-3.39597 -0.027,-0.0848 -0.004,-0.15421 0.0511,-0.15421 0.0551,0 0.78499,0.43859 1.62199,0.97464 0.83699,0.53606 1.58697,0.96235 1.66663,0.94732 0.0796,-0.0151 0.17878,-0.0868 0.22028,-0.15951 0.0583,-0.1021 1.2526,-3.65693 2.30464,-6.859653 0.11621,-0.35377 0.1992,-0.28976 0.38192,0.2945 0.0758,0.24235 0.5598,1.729403 1.07557,3.304603 0.51578,1.5752 0.97682,2.99287 1.02454,3.15038 0.0589,0.19445 0.1433,0.2864 0.26284,0.2864 0.0968,0 0.82954,-0.4214 1.62819,-0.93648 0.79866,-0.51506 1.50951,-0.9576 1.57967,-0.9834 0.17079,-0.0628 0.12744,0.15304 -0.35899,1.7877 -0.48294,1.62291 -0.51808,1.80334 -0.35383,1.81677 0.069,0.006 1.82854,0.003 3.91015,-0.006 2.43212,-0.0102 3.805,0.0154 3.84138,0.0718 0.0311,0.0483 -0.32691,0.34063 -0.79566,0.64969 -2.61397,1.72339 -5.58885,3.80545 -5.58885,3.91152 0,0.13821 0.0884,0.21536 1.24163,1.08362 1.5534,1.16956 1.88542,1.43367 1.88542,1.49978 0,0.0735 -1.80155,0.18132 -3.03112,0.18132 -0.46097,0 -0.83791,0.0412 -0.89725,0.098 -0.12469,0.11948 -0.15886,0.007 1.216,3.99015 0.58378,1.69112 1.04155,3.09381 1.01726,3.11709 -0.0434,0.0416 -1.26313,-0.80795 -4.48746,-3.12562 -0.89647,-0.64438 -1.70943,-1.17162 -1.80657,-1.17162 -0.14567,0 -0.29705,0.31198 -0.86391,1.78054 -0.37802,0.97929 -0.72392,1.79144 -0.76866,1.80478 -0.0448,0.0134 -0.39545,-0.79781 -0.77933,-1.80256 -0.47755,-1.24989 -0.74484,-1.83556 -0.84637,-1.8545 -0.0816,-0.0152 -0.69875,0.36507 -1.37141,0.84512 -3.13518,2.23741 -5.03988,3.53083 -5.03988,3.42243 z"
       style="fill:#000000;fill-opacity:1;stroke:#000000;stroke-width:0.139416;stroke-dasharray:none;stroke-opacity:1"
       id="path1-7-6-3" />
  </g>
</svg>
